solid
  facet normal 0.000000 1.000000 0.000000
    outer loop
      vertex -0.250000 0.433013 0.100000
      vertex 0.250000 0.433013 0.100000
      vertex 0.250000 0.433013 -0.100000
    endloop
  endfacet
  facet normal 0.000000 1.000000 0.000000
    outer loop
      vertex -0.250000 0.433013 0.100000
      vertex 0.250000 0.433013 -0.100000
      vertex -0.250000 0.433013 -0.100000
    endloop
  endfacet
  facet normal 0.866025 0.500000 0.000000
    outer loop
      vertex 0.250000 0.433013 0.100000
      vertex 0.500000 -0.000000 0.100000
      vertex 0.500000 -0.000000 -0.100000
    endloop
  endfacet
  facet normal 0.866025 0.500000 0.000000
    outer loop
      vertex 0.250000 0.433013 0.100000
      vertex 0.500000 -0.000000 -0.100000
      vertex 0.250000 0.433013 -0.100000
    endloop
  endfacet
  facet normal 0.866025 -0.500000 0.000000
    outer loop
      vertex 0.500000 -0.000000 -0.100000
      vertex 0.500000 -0.000000 0.100000
      vertex 0.250000 -0.433013 0.100000
    endloop
  endfacet
  facet normal 0.866025 -0.500000 0.000000
    outer loop
      vertex 0.500000 -0.000000 -0.100000
      vertex 0.250000 -0.433013 0.100000
      vertex 0.250000 -0.433013 -0.100000
    endloop
  endfacet
  facet normal -0.000000 -1.000000 0.000000
    outer loop
      vertex 0.250000 -0.433013 0.100000
      vertex -0.250000 -0.433013 0.100000
      vertex -0.250000 -0.433013 -0.100000
    endloop
  endfacet
  facet normal -0.000000 -1.000000 0.000000
    outer loop
      vertex 0.250000 -0.433013 0.100000
      vertex -0.250000 -0.433013 -0.100000
      vertex 0.250000 -0.433013 -0.100000
    endloop
  endfacet
  facet normal -0.866025 -0.500000 0.000000
    outer loop
      vertex -0.250000 -0.433013 0.100000
      vertex -0.500000 -0.000000 0.100000
      vertex -0.500000 -0.000000 -0.100000
    endloop
  endfacet
  facet normal -0.866025 -0.500000 0.000000
    outer loop
      vertex -0.250000 -0.433013 0.100000
      vertex -0.500000 -0.000000 -0.100000
      vertex -0.250000 -0.433013 -0.100000
    endloop
  endfacet
  facet normal -0.866025 0.500000 0.000000
    outer loop
      vertex -0.500000 -0.000000 0.100000
      vertex -0.250000 0.433013 0.100000
      vertex -0.250000 0.433013 -0.100000
    endloop
  endfacet
  facet normal -0.866025 0.500000 0.000000
    outer loop
      vertex -0.500000 -0.000000 0.100000
      vertex -0.250000 0.433013 -0.100000
      vertex -0.500000 -0.000000 -0.100000
    endloop
  endfacet
  facet normal 0.000000 0.000000 -1.000000
    outer loop
      vertex -0.500000 -0.000000 -0.100000
      vertex -0.250000 0.433013 -0.100000
      vertex 0.500000 -0.000000 -0.100000
    endloop
  endfacet
  facet normal 0.000000 0.000000 -1.000000
    outer loop
      vertex -0.500000 -0.000000 -0.100000
      vertex 0.500000 -0.000000 -0.100000
      vertex 0.250000 -0.433013 -0.100000
    endloop
  endfacet
  facet normal 0.000000 0.000000 -1.000000
    outer loop
      vertex -0.500000 -0.000000 -0.100000
      vertex 0.250000 -0.433013 -0.100000
      vertex -0.250000 -0.433013 -0.100000
    endloop
  endfacet
  facet normal 0.000000 0.000000 -1.000000
    outer loop
      vertex -0.250000 0.433013 -0.100000
      vertex 0.250000 0.433013 -0.100000
      vertex 0.500000 -0.000000 -0.100000
    endloop
  endfacet
  facet normal 0.000000 0.000000 1.000000
    outer loop
      vertex 0.250000 0.433013 0.100000
      vertex -0.250000 0.433013 0.100000
      vertex -0.250000 -0.433013 0.100000
    endloop
  endfacet
  facet normal 0.000000 0.000000 1.000000
    outer loop
      vertex 0.250000 0.433013 0.100000
      vertex -0.250000 -0.433013 0.100000
      vertex 0.250000 -0.433013 0.100000
    endloop
  endfacet
  facet normal 0.000000 0.000000 1.000000
    outer loop
      vertex 0.250000 0.433013 0.100000
      vertex 0.250000 -0.433013 0.100000
      vertex 0.500000 -0.000000 0.100000
    endloop
  endfacet
  facet normal 0.000000 0.000000 1.000000
    outer loop
      vertex -0.250000 0.433013 0.100000
      vertex -0.500000 -0.000000 0.100000
      vertex -0.250000 -0.433013 0.100000
    endloop
  endfacet
endsolid
